# Blender 3.5.1
# www.blender.org
mtllib thin_pillar_bottom.mtl
o cube.001
v 0.312500 0.500000 0.312500
v 0.312500 0.500000 -0.312500
v 0.312500 -0.125000 0.312500
v 0.312500 -0.125000 -0.312500
v -0.312500 0.500000 -0.312500
v -0.312500 0.500000 0.312500
v -0.312500 -0.125000 -0.312500
v -0.312500 -0.125000 0.312500
v 0.375000 -0.125000 0.375000
v 0.375000 -0.125000 -0.375000
v 0.375000 -0.312500 0.375000
v 0.375000 -0.312500 -0.375000
v -0.375000 -0.125000 -0.375000
v -0.375000 -0.125000 0.375000
v -0.375000 -0.312500 -0.375000
v -0.375000 -0.312500 0.375000
v 0.437500 -0.312500 0.437500
v 0.437500 -0.312500 -0.437500
v 0.437500 -0.500000 0.437500
v 0.437500 -0.500000 -0.437500
v -0.437500 -0.312500 -0.437500
v -0.437500 -0.312500 0.437500
v -0.437500 -0.500000 -0.437500
v -0.437500 -0.500000 0.437500
vn -0.0000 -0.0000 -1.0000
vn 1.0000 -0.0000 -0.0000
vn -0.0000 -0.0000 1.0000
vn -1.0000 -0.0000 -0.0000
vn -0.0000 1.0000 -0.0000
vn -0.0000 -1.0000 -0.0000
vt 0.187500 1.000000
vt 0.812500 1.000000
vt 0.187500 1.000000
vt 0.812500 1.000000
vt 0.187500 0.375000
vt 0.812500 0.375000
vt 0.187500 0.375000
vt 0.812500 0.375000
vt 0.812500 1.000000
vt 0.187500 1.000000
vt 0.187500 1.000000
vt 0.812500 1.000000
vt 0.812500 0.375000
vt 0.187500 0.375000
vt 0.187500 0.375000
vt 0.812500 0.375000
vt 0.125000 0.375000
vt 0.875000 0.375000
vt 0.875000 0.125000
vt 0.125000 0.375000
vt 0.875000 0.375000
vt 0.875000 0.875000
vt 0.125000 0.187500
vt 0.875000 0.187500
vt 0.125000 0.187500
vt 0.875000 0.187500
vt 0.875000 0.375000
vt 0.125000 0.375000
vt 0.125000 0.875000
vt 0.125000 0.375000
vt 0.875000 0.375000
vt 0.125000 0.125000
vt 0.875000 0.187500
vt 0.125000 0.187500
vt 0.125000 0.187500
vt 0.875000 0.187500
vt 0.062500 0.187500
vt 0.937500 0.187500
vt 0.937500 0.062500
vt 0.062500 0.187500
vt 0.937500 0.187500
vt 0.937500 0.937500
vt 0.062500 0.000000
vt 0.937500 0.000000
vt 0.937500 0.937500
vt 0.062500 0.000000
vt 0.937500 0.000000
vt 0.937500 0.062500
vt 0.937500 0.187500
vt 0.062500 0.187500
vt 0.062500 0.937500
vt 0.062500 0.187500
vt 0.937500 0.187500
vt 0.062500 0.062500
vt 0.937500 0.000000
vt 0.062500 0.000000
vt 0.062500 0.062500
vt 0.062500 0.000000
vt 0.937500 0.000000
vt 0.062500 0.937500
s 0
g cube.001_sides.001
usemtl sides.001
f 12/25/1 15/33/1 13/27/1 10/20/1
f 11/23/2 12/26/2 10/21/2 9/17/2
f 16/35/3 11/24/3 9/18/3 14/30/3
f 15/34/4 16/36/4 14/31/4 13/28/4
f 20/46/1 23/55/1 21/49/1 18/40/1
f 19/43/2 20/47/2 18/41/2 17/37/2
f 24/58/3 19/44/3 17/38/3 22/52/3
f 23/56/4 24/59/4 22/53/4 21/50/4
g cube.001_top.001
usemtl top.001
f 14/32/5 9/19/5 10/22/5 13/29/5
f 22/54/5 17/39/5 18/42/5 21/51/5
f 23/57/6 20/48/6 19/45/6 24/60/6
g cube.001_middle.001
usemtl middle.001
f 4/7/1 7/13/1 5/9/1 2/3/1
f 3/5/2 4/8/2 2/4/2 1/1/2
f 8/15/3 3/6/3 1/2/3 6/11/3
f 7/14/4 8/16/4 6/12/4 5/10/4
