# Made in Blockbench 4.7.2
mtllib lucinus_2.mtl

o cube
v -0.125 -0.1875 -0.125
v -0.125 -0.1875 -0.4375
v -0.125 -0.5 -0.125
v -0.125 -0.5 -0.4375
v -0.4375 -0.1875 -0.4375
v -0.4375 -0.1875 -0.125
v -0.4375 -0.5 -0.4375
v -0.4375 -0.5 -0.125
vt 0.5625 0.5625
vt 0.875 0.5625
vt 0.875 0.25
vt 0.5625 0.25
vt 0.5625 0.5625
vt 0.875 0.5625
vt 0.875 0.25
vt 0.5625 0.25
vt 0.5625 0.5625
vt 0.875 0.5625
vt 0.875 0.25
vt 0.5625 0.25
vt 0.5625 0.5625
vt 0.875 0.5625
vt 0.875 0.25
vt 0.5625 0.25
vt 0.5625 0.9375
vt 0.875 0.9375
vt 0.875 0.625
vt 0.5625 0.625
vn 0 0 -1
vn 1 0 0
vn 0 0 1
vn -1 0 0
vn 0 1 0
usemtl m_83fb8ded-faa5-ed0d-9c8e-2bd52cd5655c
f 4/4/1 7/3/1 5/2/1 2/1/1
f 3/8/2 4/7/2 2/6/2 1/5/2
f 8/12/3 3/11/3 1/10/3 6/9/3
f 7/16/4 8/15/4 6/14/4 5/13/4
f 6/20/5 1/19/5 2/18/5 5/17/5
o cube
v 0.375 -0.25 -0.0625
v 0.375 -0.25 -0.3125
v 0.375 -0.5 -0.0625
v 0.375 -0.5 -0.3125
v 0.125 -0.25 -0.3125
v 0.125 -0.25 -0.0625
v 0.125 -0.5 -0.3125
v 0.125 -0.5 -0.0625
vt 0.5 0.5
vt 0.75 0.5
vt 0.75 0.25
vt 0.5 0.25
vt 0.5 0.5
vt 0.75 0.5
vt 0.75 0.25
vt 0.5 0.25
vt 0.5 0.5
vt 0.75 0.5
vt 0.75 0.25
vt 0.5 0.25
vt 0.5 0.5
vt 0.75 0.5
vt 0.75 0.25
vt 0.5 0.25
vt 0.5625 0.9375
vt 0.8125 0.9375
vt 0.8125 0.6875
vt 0.5625 0.6875
vn 0 0 -1
vn 1 0 0
vn 0 0 1
vn -1 0 0
vn 0 1 0
usemtl m_83fb8ded-faa5-ed0d-9c8e-2bd52cd5655c
f 12/24/6 15/23/6 13/22/6 10/21/6
f 11/28/7 12/27/7 10/26/7 9/25/7
f 16/32/8 11/31/8 9/30/8 14/29/8
f 15/36/9 16/35/9 14/34/9 13/33/9
f 14/40/10 9/39/10 10/38/10 13/37/10
o cube
v 0.1875 -0.125 0.4375
v 0.1875 -0.125 0.0625
v 0.1875 -0.5 0.4375
v 0.1875 -0.5 0.0625
v -0.1875 -0.125 0.0625
v -0.1875 -0.125 0.4375
v -0.1875 -0.5 0.0625
v -0.1875 -0.5 0.4375
vt 0.5 0.625
vt 0.875 0.625
vt 0.875 0.25
vt 0.5 0.25
vt 0.5 0.625
vt 0.875 0.625
vt 0.875 0.25
vt 0.5 0.25
vt 0.5 0.625
vt 0.875 0.625
vt 0.875 0.25
vt 0.5 0.25
vt 0.5 0.625
vt 0.875 0.625
vt 0.875 0.25
vt 0.5 0.25
vt 0.5 1
vt 0.875 1
vt 0.875 0.625
vt 0.5 0.625
vn 0 0 -1
vn 1 0 0
vn 0 0 1
vn -1 0 0
vn 0 1 0
usemtl m_83fb8ded-faa5-ed0d-9c8e-2bd52cd5655c
f 20/44/11 23/43/11 21/42/11 18/41/11
f 19/48/12 20/47/12 18/46/12 17/45/12
f 24/52/13 19/51/13 17/50/13 22/49/13
f 23/56/14 24/55/14 22/54/14 21/53/14
f 22/60/15 17/59/15 18/58/15 21/57/15