# Blender 3.5.1
# www.blender.org
mtllib thelimit_emissive_plant.mtl
o Plane.004
v 0.352139 -0.500000 -0.354968
v -0.354968 -0.500000 0.352139
v 0.352139 0.500000 -0.354968
v -0.354968 0.500000 0.352139
v 0.354968 -0.500000 0.352139
v -0.352139 -0.500000 -0.354968
v 0.354968 0.500000 0.352139
v -0.352139 0.500000 -0.354968
v 0.354968 -0.500000 -0.352139
v -0.352139 -0.500000 0.354968
v 0.354968 0.500000 -0.352139
v -0.352139 0.500000 0.354968
v 0.352139 -0.500000 0.354968
v -0.354968 -0.500000 -0.352139
v 0.352139 0.500000 0.354968
v -0.354968 0.500000 -0.352139
vn -0.7071 -0.0000 -0.7071
vn 0.7071 -0.0000 -0.7071
vn 0.7071 -0.0000 0.7071
vn -0.7071 -0.0000 0.7071
vt 0.000000 0.000000
vt 1.000000 0.000000
vt 0.000000 1.000000
vt 1.000000 1.000000
vt 0.000000 0.000000
vt 1.000000 0.000000
vt 0.000000 1.000000
vt 1.000000 1.000000
vt 0.000000 0.000000
vt 1.000000 0.000000
vt 0.000000 1.000000
vt 1.000000 1.000000
vt 0.000000 0.000000
vt 1.000000 0.000000
vt 0.000000 1.000000
vt 1.000000 1.000000
s 0
usemtl Material.001
f 1/1/1 2/2/1 4/4/1 3/3/1
f 5/5/2 6/6/2 8/8/2 7/7/2
f 9/9/3 11/11/3 12/12/3 10/10/3
f 13/13/4 15/15/4 16/16/4 14/14/4
