# Blender 3.5.1
# www.blender.org
mtllib thin_pillar_small.mtl
o cube.004
v 0.312500 0.125000 0.312500
v 0.312500 0.125000 -0.312500
v 0.312500 -0.125000 0.312500
v 0.312500 -0.125000 -0.312500
v -0.312500 0.125000 -0.312500
v -0.312500 0.125000 0.312500
v -0.312500 -0.125000 -0.312500
v -0.312500 -0.125000 0.312500
v 0.437500 0.500000 0.437500
v 0.437500 0.500000 -0.437500
v 0.437500 0.312500 0.437500
v 0.437500 0.312500 -0.437500
v -0.437500 0.500000 -0.437500
v -0.437500 0.500000 0.437500
v -0.437500 0.312500 -0.437500
v -0.437500 0.312500 0.437500
v 0.375000 -0.125000 0.375000
v 0.375000 -0.125000 -0.375000
v 0.375000 -0.312500 0.375000
v 0.375000 -0.312500 -0.375000
v -0.375000 -0.125000 -0.375000
v -0.375000 -0.125000 0.375000
v -0.375000 -0.312500 -0.375000
v -0.375000 -0.312500 0.375000
v 0.375000 0.312500 0.375000
v 0.375000 0.312500 -0.375000
v 0.375000 0.125000 0.375000
v 0.375000 0.125000 -0.375000
v -0.375000 0.312500 -0.375000
v -0.375000 0.312500 0.375000
v -0.375000 0.125000 -0.375000
v -0.375000 0.125000 0.375000
v 0.437500 -0.312500 0.437500
v 0.437500 -0.312500 -0.437500
v 0.437500 -0.500000 0.437500
v 0.437500 -0.500000 -0.437500
v -0.437500 -0.312500 -0.437500
v -0.437500 -0.312500 0.437500
v -0.437500 -0.500000 -0.437500
v -0.437500 -0.500000 0.437500
vn -0.0000 -0.0000 -1.0000
vn 1.0000 -0.0000 -0.0000
vn -0.0000 -0.0000 1.0000
vn -1.0000 -0.0000 -0.0000
vn -0.0000 1.0000 -0.0000
vn -0.0000 -1.0000 -0.0000
vt 0.187500 0.625000
vt 0.812500 0.625000
vt 0.187500 0.625000
vt 0.812500 0.625000
vt 0.187500 0.375000
vt 0.812500 0.375000
vt 0.187500 0.375000
vt 0.812500 0.375000
vt 0.812500 0.625000
vt 0.187500 0.625000
vt 0.187500 0.625000
vt 0.812500 0.625000
vt 0.812500 0.375000
vt 0.187500 0.375000
vt 0.187500 0.375000
vt 0.812500 0.375000
vt 0.062500 1.000000
vt 0.937500 1.000000
vt 0.937500 0.062500
vt 0.062500 1.000000
vt 0.937500 1.000000
vt 0.937500 0.937500
vt 0.062500 0.812500
vt 0.937500 0.812500
vt 0.937500 0.937500
vt 0.062500 0.812500
vt 0.937500 0.812500
vt 0.937500 0.062500
vt 0.937500 1.000000
vt 0.062500 1.000000
vt 0.062500 0.937500
vt 0.062500 1.000000
vt 0.937500 1.000000
vt 0.062500 0.062500
vt 0.937500 0.812500
vt 0.062500 0.812500
vt 0.062500 0.062500
vt 0.062500 0.812500
vt 0.937500 0.812500
vt 0.062500 0.937500
vt 0.125000 0.375000
vt 0.875000 0.375000
vt 0.875000 0.125000
vt 0.125000 0.375000
vt 0.875000 0.375000
vt 0.875000 0.875000
vt 0.125000 0.187500
vt 0.875000 0.187500
vt 0.125000 0.187500
vt 0.875000 0.187500
vt 0.875000 0.375000
vt 0.125000 0.375000
vt 0.125000 0.875000
vt 0.125000 0.375000
vt 0.875000 0.375000
vt 0.125000 0.125000
vt 0.875000 0.187500
vt 0.125000 0.187500
vt 0.125000 0.187500
vt 0.875000 0.187500
vt 0.125000 0.812500
vt 0.875000 0.812500
vt 0.125000 0.812500
vt 0.875000 0.812500
vt 0.125000 0.625000
vt 0.875000 0.625000
vt 0.875000 0.875000
vt 0.125000 0.625000
vt 0.875000 0.625000
vt 0.875000 0.125000
vt 0.875000 0.812500
vt 0.125000 0.812500
vt 0.125000 0.812500
vt 0.875000 0.812500
vt 0.875000 0.625000
vt 0.125000 0.625000
vt 0.125000 0.125000
vt 0.125000 0.625000
vt 0.875000 0.625000
vt 0.125000 0.875000
vt 0.062500 0.187500
vt 0.937500 0.187500
vt 0.937500 0.062500
vt 0.062500 0.187500
vt 0.937500 0.187500
vt 0.937500 0.937500
vt 0.062500 0.000000
vt 0.937500 0.000000
vt 0.937500 0.937500
vt 0.062500 0.000000
vt 0.937500 0.000000
vt 0.937500 0.062500
vt 0.937500 0.187500
vt 0.062500 0.187500
vt 0.062500 0.937500
vt 0.062500 0.187500
vt 0.937500 0.187500
vt 0.062500 0.062500
vt 0.937500 0.000000
vt 0.062500 0.000000
vt 0.062500 0.062500
vt 0.062500 0.000000
vt 0.937500 0.000000
vt 0.062500 0.937500
s 0
g cube.004_sides
usemtl sides
f 4/7/1 7/13/1 5/9/1 2/3/1
f 3/5/2 4/8/2 2/4/2 1/1/2
f 8/15/3 3/6/3 1/2/3 6/11/3
f 7/14/4 8/16/4 6/12/4 5/10/4
f 12/26/1 15/35/1 13/29/1 10/20/1
f 11/23/2 12/27/2 10/21/2 9/17/2
f 16/38/3 11/24/3 9/18/3 14/32/3
f 15/36/4 16/39/4 14/33/4 13/30/4
f 20/49/1 23/57/1 21/51/1 18/44/1
f 19/47/2 20/50/2 18/45/2 17/41/2
f 24/59/3 19/48/3 17/42/3 22/54/3
f 23/58/4 24/60/4 22/55/4 21/52/4
f 28/68/1 31/75/1 29/71/1 26/63/1
f 27/65/2 28/69/2 26/64/2 25/61/2
f 32/78/3 27/66/3 25/62/3 30/73/3
f 31/76/4 32/79/4 30/74/4 29/72/4
f 36/90/1 39/99/1 37/93/1 34/84/1
f 35/87/2 36/91/2 34/85/2 33/81/2
f 40/102/3 35/88/3 33/82/3 38/96/3
f 39/100/4 40/103/4 38/97/4 37/94/4
g cube.004_top
usemtl top
f 14/34/5 9/19/5 10/22/5 13/31/5
f 15/37/6 12/28/6 11/25/6 16/40/6
f 22/56/5 17/43/5 18/46/5 21/53/5
f 31/77/6 28/70/6 27/67/6 32/80/6
f 38/98/5 33/83/5 34/86/5 37/95/5
f 39/101/6 36/92/6 35/89/6 40/104/6
